<svg id="Layer_1" data-name="Layer 1" xmlns="http://www.w3.org/2000/svg" viewBox="0 0 574.75 441.18"><defs><style>.cls-1{fill:#d2de26;}.cls-1,.cls-2,.cls-3,.cls-4,.cls-5{stroke:#231f20;stroke-miterlimit:10;stroke-width:6px;}.cls-2{fill:#231f20;}.cls-3{fill:#f9f06c;}.cls-4{fill:#ffc63f;}.cls-5{fill:none;}</style></defs><path class="cls-1" d="M453.08,688.32H363.79c-21.25,0-39.8-15.87-45.09-38.56L261.87,405.65A69.24,69.24,0,0,1,263,370l.64-2.13c8.38-27.81,32-46.59,58.56-46.59H503c25.68,0,48.56,17.86,57.08,44.56h0a69.25,69.25,0,0,1,1.52,36.57L506.38,642.6C500.19,669.49,478.24,688.32,453.08,688.32Z" transform="translate(-257.07 -250.14)"/><rect class="cls-2" x="24.03" y="35.8" width="261.36" height="35.23" rx="17.61"/><path class="cls-3" d="M530,282.11H293.59c11-17.58,36.12-29,63.94-29H466c27.81,0,53,11.39,63.93,29Z" transform="translate(-257.07 -250.14)"/><path class="cls-4" d="M742.27,688.32H672.2c-16.68,0-31.24-12.41-35.38-30.15l-44.6-190.83a53.83,53.83,0,0,1,.89-27.88l.5-1.66c6.58-21.74,25.1-36.42,46-36.42H781.45c20.15,0,38.1,14,44.79,34.83h0a53.92,53.92,0,0,1,1.2,28.59L784.09,652.58C779.24,673.6,762,688.32,742.27,688.32Z" transform="translate(-257.07 -250.14)"/><rect class="cls-2" x="350.24" y="123.62" width="205.1" height="27.54" rx="13.77"/><path class="cls-3" d="M802.59,370.77H617.11c8.61-13.75,28.34-22.65,50.18-22.65h85.13c21.83,0,41.56,8.9,50.17,22.65Z" transform="translate(-257.07 -250.14)"/><line class="cls-5" x1="268.1" y1="242.65" x2="248.7" y2="333.03"/><path class="cls-5" d="M525.17,337.26a49.34,49.34,0,0,1,18.38,16.85,50,50,0,0,1,7.66,30.12" transform="translate(-257.07 -250.14)"/><line class="cls-5" x1="538.89" y1="294.83" x2="519.48" y2="385.21"/><path class="cls-5" d="M786.25,415a49.37,49.37,0,0,1,18.38,16.85A50,50,0,0,1,812.29,462" transform="translate(-257.07 -250.14)"/></svg>