<svg id="Layer_1" data-name="Layer 1" xmlns="http://www.w3.org/2000/svg" viewBox="0 0 136.27 895.12"><defs><style>.cls-1{fill:#f3eb29;}.cls-1,.cls-2,.cls-3{stroke:#231f20;stroke-miterlimit:10;stroke-width:6px;}.cls-2{fill:#828281;}.cls-3{fill:none;}</style></defs><path class="cls-1" d="M51.26,3H85a27.44,27.44,0,0,1,27.44,27.44V64.09a0,0,0,0,1,0,0H23.82a0,0,0,0,1,0,0V30.44A27.44,27.44,0,0,1,51.26,3Z"/><rect class="cls-1" x="23.61" y="437.39" width="88.64" height="337.82"/><rect class="cls-1" x="15.46" y="411.25" width="104.94" height="26.14"/><rect class="cls-1" x="15.67" y="775.21" width="104.94" height="26.14" rx="10.22"/><rect class="cls-1" x="15.67" y="865.98" width="104.94" height="26.14" rx="9.26"/><rect class="cls-1" x="23.61" y="801.35" width="88.64" height="64.63"/><path class="cls-1" d="M500,298.47V203.74a23.94,23.94,0,0,0-23.94-23.94H393.67a23.94,23.94,0,0,0-23.94,23.94v94.73c0,13.22,7.39,23.94,20.61,23.94h0v61.93h0c-16.81,0-20.61,13.63-20.61,30.43v81.75A30.42,30.42,0,0,0,400.16,527h69.41A30.43,30.43,0,0,0,500,496.52V414.77c0-16.8-4.21-30.43-21-30.43h0V322.41h0C492.2,322.41,500,311.69,500,298.47Z" transform="translate(-366.73 -115.7)"/><path class="cls-2" d="M35.8,97.47h64.68a0,0,0,0,1,0,0v53.28a32.34,32.34,0,0,1-32.34,32.34h0A32.34,32.34,0,0,1,35.8,150.74V97.47a0,0,0,0,1,0,0Z"/><ellipse class="cls-2" cx="66.57" cy="480.36" rx="21.92" ry="19.83"/><ellipse class="cls-2" cx="66.57" cy="531" rx="21.92" ry="19.83"/><ellipse class="cls-2" cx="66.57" cy="581.64" rx="21.92" ry="19.83"/><ellipse class="cls-2" cx="66.57" cy="640.36" rx="21.92" ry="19.83"/><ellipse class="cls-2" cx="66.57" cy="691" rx="21.92" ry="19.83"/><ellipse class="cls-2" cx="66.57" cy="741.64" rx="21.92" ry="19.83"/><circle class="cls-2" cx="67.14" cy="833.66" r="30.49"/><line class="cls-3" x1="120.6" y1="302.23" x2="120.6" y2="356.36"/><line class="cls-3" x1="120.6" y1="364.7" x2="120.6" y2="384.11"/><line class="cls-3" x1="123.04" y1="94.49" x2="123.04" y2="148.62"/><line class="cls-3" x1="123.04" y1="156.96" x2="123.04" y2="176.36"/><line class="cls-3" x1="102.48" y1="455.16" x2="102.48" y2="509.29"/><line class="cls-3" x1="102.48" y1="517.63" x2="102.48" y2="537.03"/><line class="cls-3" x1="102.48" y1="565.16" x2="102.48" y2="619.29"/><line class="cls-3" x1="102.48" y1="627.63" x2="102.48" y2="647.03"/><line class="cls-3" x1="102.48" y1="685.16" x2="102.48" y2="739.29"/><line class="cls-3" x1="102.48" y1="747.63" x2="102.48" y2="767.03"/></svg>