<svg id="Layer_1" data-name="Layer 1" xmlns="http://www.w3.org/2000/svg" viewBox="0 0 445.91 445.91"><defs><style>.cls-1{fill:#231f20;}.cls-1,.cls-2,.cls-3,.cls-4{stroke:#231f20;stroke-miterlimit:10;stroke-width:5px;}.cls-2{fill:#fff;}.cls-3{fill:#fff270;}.cls-4{fill:none;}</style></defs><ellipse class="cls-1" cx="222.95" cy="222.95" rx="184.66" ry="187.5"/><ellipse class="cls-2" cx="222.95" cy="222.95" rx="143.45" ry="145.66"/><circle class="cls-3" cx="222.95" cy="52.78" r="50.28"/><circle class="cls-3" cx="102.63" cy="102.63" r="50.28"/><circle class="cls-3" cx="52.78" cy="222.95" r="50.28"/><circle class="cls-3" cx="102.63" cy="343.28" r="50.28"/><circle class="cls-3" cx="222.95" cy="393.12" r="50.28"/><circle class="cls-3" cx="343.28" cy="343.28" r="50.28"/><circle class="cls-3" cx="393.12" cy="222.95" r="50.28"/><circle class="cls-3" cx="343.28" cy="102.63" r="50.28"/><path class="cls-4" d="M723.26,443.15a46.79,46.79,0,0,1-3.64,40.21" transform="translate(-293.93 -238.09)"/><path class="cls-4" d="M674,591.88a46.7,46.7,0,0,1-27.41,29.64" transform="translate(-293.93 -238.09)"/><path class="cls-4" d="M647.73,303.89a46.71,46.71,0,0,1,29.63,27.41" transform="translate(-293.93 -238.09)"/><path class="cls-4" d="M498.28,257.4a46.76,46.76,0,0,1,40.34-1.57" transform="translate(-293.93 -238.09)"/><path class="cls-4" d="M359.73,330.21a46.76,46.76,0,0,1,27.41-29.64" transform="translate(-293.93 -238.09)"/><path class="cls-4" d="M313.24,479.66a46.78,46.78,0,0,1-1.57-40.35" transform="translate(-293.93 -238.09)"/><path class="cls-4" d="M386.05,618.2a46.76,46.76,0,0,1-29.64-27.41" transform="translate(-293.93 -238.09)"/><path class="cls-4" d="M535.5,664.69a46.78,46.78,0,0,1-40.35,1.57" transform="translate(-293.93 -238.09)"/></svg>