<svg id="Layer_1" data-name="Layer 1" xmlns="http://www.w3.org/2000/svg" viewBox="0 0 392.87 657.09"><defs><style>.cls-1{fill:#e88844;}.cls-1,.cls-2,.cls-3,.cls-4,.cls-5{stroke:#231f20;stroke-miterlimit:10;}.cls-1,.cls-5{stroke-width:5px;}.cls-2{fill:#444a51;}.cls-2,.cls-3,.cls-4{stroke-width:4px;}.cls-3{fill:#252b30;}.cls-4{fill:#f2f2f3;}.cls-5{fill:none;}</style></defs><path class="cls-1" d="M356,551.65a83.71,83.71,0,0,0,18.27-27.15c16.95-40.48-.6-87.78-39.91-107.29a83.8,83.8,0,0,0-121.11,73.52,61.13,61.13,0,0,1-36.44,54.53c-27,12-42.47,35.5-55,64.81-26.29,61.51-1.87,123,59.77,149,61.22,25.78,124.51,4.35,150.93-56.76,12.59-29.11,17.79-58.58,8.07-86.33C332.65,593.4,339,568.47,356,551.65Z" transform="translate(-108.81 -115.17)"/><polygon class="cls-2" points="211.4 406.4 152.66 380.99 285.29 99.51 325.67 116.98 211.4 406.4"/><circle class="cls-3" cx="176.67" cy="406.09" r="35.5"/><polygon class="cls-4" points="147.61 637.03 28.29 585.42 47.79 565.53 148.75 609.19 147.61 637.03"/><line class="cls-5" x1="304.37" y1="110.83" x2="87.95" y2="611.22"/><line class="cls-5" x1="305.28" y1="111.22" x2="88.87" y2="611.62"/><line class="cls-5" x1="314.46" y1="115.19" x2="98.05" y2="615.59"/><line class="cls-5" x1="323.64" y1="119.16" x2="107.23" y2="619.56"/><line class="cls-5" x1="296.11" y1="107.25" x2="79.69" y2="607.65"/><line class="cls-5" x1="286.01" y1="102.89" x2="69.6" y2="603.28"/><line class="cls-5" x1="286.93" y1="103.28" x2="70.51" y2="603.68"/><line class="cls-5" x1="292.75" y1="4.15" x2="391.88" y2="47.02"/><line class="cls-5" x1="354.57" y1="52.68" x2="383.94" y2="65.38"/><line class="cls-5" x1="284.82" y1="22.51" x2="311" y2="33.84"/><line class="cls-5" x1="347.59" y1="71.45" x2="376" y2="83.74"/><line class="cls-5" x1="276.88" y1="40.87" x2="303.06" y2="52.19"/><line class="cls-5" x1="268.94" y1="59.22" x2="368.06" y2="102.1"/><path class="cls-1" d="M479.3,139.43Q461.89,113.35,431,118.52L393.72,173.1,389,212.46l50.64,21.91,25.67-31ZM418.61,196l-13.83-6L430,131.63l13.82,6Zm25.21,10.9-13.83-6,25.24-58.35,13.82,6Z" transform="translate(-108.81 -115.17)"/></svg>