<svg id="Layer_1" data-name="Layer 1" xmlns="http://www.w3.org/2000/svg" viewBox="0 0 775.06 365"><defs><style>.cls-1{fill:#231f20;}.cls-1,.cls-2,.cls-3,.cls-4,.cls-5,.cls-6,.cls-7,.cls-8,.cls-9{stroke:#231f20;stroke-miterlimit:10;stroke-width:5px;}.cls-2{fill:#e62c25;}.cls-3{fill:#e25ca1;}.cls-4{fill:#f8ec20;}.cls-5{fill:#5d5aa8;}.cls-6{fill:#6fbe44;}.cls-7{fill:#53c6d6;}.cls-8{fill:#fff;}.cls-9{fill:none;}</style></defs><rect class="cls-1" x="137.15" y="359.53" width="754.13" height="31.82" rx="15.91" transform="translate(-170.54 -214.41) rotate(-6)"/><rect class="cls-1" x="134.25" y="519.29" width="774.77" height="31.82" rx="15.91" transform="translate(-70.64 -325.48) rotate(6.45)"/><rect class="cls-2" x="96.49" y="100.03" width="54.96" height="164.93"/><rect class="cls-3" x="180.49" y="74.26" width="50.75" height="216.48"/><rect class="cls-4" x="256.55" y="61.71" width="58.94" height="241.58"/><rect class="cls-5" x="348.23" y="51.25" width="63.77" height="262.5"/><rect class="cls-6" x="450.49" y="25" width="64.15" height="315"/><rect class="cls-7" x="560.49" y="2.5" width="64.15" height="360"/><circle class="cls-8" cx="123.97" cy="132.13" r="19.27"/><circle class="cls-8" cx="205.86" cy="120.35" r="19.27"/><circle class="cls-8" cx="205.97" cy="242.13" r="19.27"/><circle class="cls-8" cx="283.97" cy="112.13" r="19.27"/><circle class="cls-8" cx="283.97" cy="252.13" r="19.27"/><circle class="cls-8" cx="380.97" cy="101.13" r="19.27"/><circle class="cls-8" cx="380.97" cy="261.13" r="19.27"/><circle class="cls-8" cx="482.56" cy="91.13" r="19.27"/><circle class="cls-8" cx="482.56" cy="271.13" r="19.27"/><circle class="cls-8" cx="592.56" cy="81.13" r="19.27"/><circle class="cls-8" cx="592.56" cy="281.13" r="19.27"/><circle class="cls-8" cx="123.97" cy="232.13" r="19.27"/><line class="cls-9" x1="611.83" y1="120.4" x2="611.83" y2="182.5"/><line class="cls-9" x1="611.83" y1="202.87" x2="611.83" y2="232.13"/></svg>