<svg id="Layer_1" data-name="Layer 1" xmlns="http://www.w3.org/2000/svg" viewBox="0 0 582.27 578.66"><defs><style>.cls-1{fill:#444a51;}.cls-1,.cls-2,.cls-4,.cls-5{stroke:#231f20;}.cls-1,.cls-2,.cls-4,.cls-5,.cls-6{stroke-miterlimit:10;stroke-width:5px;}.cls-2{fill:#f2f2f3;}.cls-3{opacity:0.1;}.cls-4{fill:#252b30;}.cls-5,.cls-6{fill:none;}.cls-6{stroke:#fff;opacity:0.3;}</style></defs><rect class="cls-1" x="2.5" y="465.93" width="577.27" height="110.23"/><rect class="cls-2" x="2.5" y="465.93" width="26.24" height="80.68"/><rect class="cls-2" x="28.74" y="465.93" width="26.24" height="80.68"/><rect class="cls-2" x="54.98" y="465.93" width="26.24" height="80.68"/><rect class="cls-2" x="81.22" y="465.93" width="26.24" height="80.68"/><rect class="cls-2" x="107.46" y="465.93" width="26.24" height="80.68"/><rect class="cls-2" x="133.7" y="465.93" width="26.24" height="80.68"/><rect class="cls-2" x="159.94" y="465.93" width="26.24" height="80.68"/><rect class="cls-2" x="186.18" y="465.93" width="26.24" height="80.68"/><rect class="cls-2" x="212.42" y="465.93" width="26.24" height="80.68"/><rect class="cls-2" x="238.66" y="465.93" width="26.24" height="80.68"/><rect class="cls-2" x="264.9" y="465.93" width="26.24" height="80.68"/><rect class="cls-2" x="291.14" y="465.93" width="26.24" height="80.68"/><rect class="cls-2" x="317.38" y="465.93" width="26.24" height="80.68"/><rect class="cls-2" x="343.62" y="465.93" width="26.24" height="80.68"/><rect class="cls-2" x="369.86" y="465.93" width="26.24" height="80.68"/><rect class="cls-2" x="396.1" y="465.93" width="26.24" height="80.68"/><rect class="cls-2" x="422.33" y="465.93" width="26.24" height="80.68"/><rect class="cls-2" x="448.57" y="465.93" width="26.24" height="80.68"/><rect class="cls-2" x="474.81" y="465.93" width="26.24" height="80.68"/><rect class="cls-2" x="501.05" y="465.93" width="26.24" height="80.68"/><rect class="cls-2" x="527.29" y="465.93" width="26.24" height="80.68"/><g class="cls-3"><rect class="cls-4" x="22.18" y="475.93" width="13.12" height="40.34"/><rect class="cls-4" x="48.42" y="475.93" width="13.12" height="40.34"/><rect class="cls-4" x="205.86" y="475.93" width="13.12" height="40.34"/><rect class="cls-4" x="232.1" y="475.93" width="13.12" height="40.34"/><rect class="cls-4" x="389.54" y="475.93" width="13.12" height="40.34"/><rect class="cls-4" x="415.77" y="475.93" width="13.12" height="40.34"/><rect class="cls-4" x="100.9" y="475.93" width="13.12" height="40.34"/><rect class="cls-4" x="127.14" y="475.93" width="13.12" height="40.34"/><rect class="cls-4" x="153.38" y="475.93" width="13.12" height="40.34"/><rect class="cls-4" x="284.58" y="475.93" width="13.12" height="40.34"/><rect class="cls-4" x="310.82" y="475.93" width="13.12" height="40.34"/><rect class="cls-4" x="337.06" y="475.93" width="13.12" height="40.34"/><rect class="cls-4" x="468.25" y="475.93" width="13.12" height="40.34"/><rect class="cls-4" x="494.49" y="475.93" width="13.12" height="40.34"/><rect class="cls-4" x="520.73" y="475.93" width="13.12" height="40.34"/></g><rect class="cls-2" x="553.53" y="465.93" width="26.24" height="80.68"/><rect class="cls-4" x="22.18" y="465.93" width="13.12" height="40.34"/><rect class="cls-4" x="48.42" y="465.93" width="13.12" height="40.34"/><rect class="cls-4" x="205.86" y="465.93" width="13.12" height="40.34"/><rect class="cls-4" x="232.1" y="465.93" width="13.12" height="40.34"/><rect class="cls-4" x="389.54" y="465.93" width="13.12" height="40.34"/><rect class="cls-4" x="415.77" y="465.93" width="13.12" height="40.34"/><rect class="cls-4" x="100.9" y="465.93" width="13.12" height="40.34"/><rect class="cls-4" x="127.14" y="465.93" width="13.12" height="40.34"/><rect class="cls-4" x="153.38" y="465.93" width="13.12" height="40.34"/><rect class="cls-4" x="284.58" y="465.93" width="13.12" height="40.34"/><rect class="cls-4" x="310.82" y="465.93" width="13.12" height="40.34"/><rect class="cls-4" x="337.06" y="465.93" width="13.12" height="40.34"/><rect class="cls-4" x="468.25" y="465.93" width="13.12" height="40.34"/><rect class="cls-4" x="494.49" y="465.93" width="13.12" height="40.34"/><rect class="cls-4" x="520.73" y="465.93" width="13.12" height="40.34"/><rect class="cls-1" x="2.5" y="426.33" width="577.27" height="36.77"/><path class="cls-1" d="M237.71,641.52V336.37A116.14,116.14,0,0,1,353.85,220.24h76A116.14,116.14,0,0,1,546,336.37h0A116.13,116.13,0,0,0,661.72,452.51l37.57.14A116.13,116.13,0,0,1,815,568.79v72.73" transform="translate(-235.21 -217.74)"/><line class="cls-5" x1="200.75" y1="444.71" x2="381.52" y2="444.71"/><line class="cls-6" x1="15.62" y1="410.5" x2="68.1" y2="410.5"/><line class="cls-6" x1="81.22" y1="410.5" x2="107.46" y2="410.5"/></svg>