<svg id="Layer_1" data-name="Layer 1" xmlns="http://www.w3.org/2000/svg" viewBox="0 0 745.43 470.02"><defs><style>.cls-1{fill:#6eceee;}.cls-1,.cls-2,.cls-3,.cls-4{stroke:#231f20;stroke-miterlimit:10;stroke-width:5px;}.cls-2{fill:#00293f;}.cls-3{fill:none;}.cls-4{fill:#faef5d;}</style></defs><rect class="cls-1" x="187.28" y="257.52" width="345.45" height="174.77"/><rect class="cls-2" x="167.96" y="222.29" width="384.09" height="35.23" rx="17.61"/><rect class="cls-2" x="167.96" y="432.29" width="384.09" height="35.23" rx="17.61"/><line class="cls-3" x1="507.37" y1="257.52" x2="507.37" y2="432.29"/><line class="cls-3" x1="360" y1="257.52" x2="360" y2="432.29"/><line class="cls-3" x1="211.37" y1="257.52" x2="211.37" y2="432.29"/><circle class="cls-4" cx="360" cy="345.3" r="23.01"/><circle class="cls-4" cx="507.37" cy="345.3" r="23.01"/><circle class="cls-4" cx="211.37" cy="345.3" r="23.01"/><rect class="cls-4" x="520.86" y="176.95" width="368.18" height="18.18" rx="9.09" transform="translate(-153.1 160.83) rotate(-21.49)"/><ellipse class="cls-4" cx="536.1" cy="252.52" rx="29.55" ry="19.89" transform="translate(-185.71 67.36) rotate(-17.97)"/><rect class="cls-4" x="124.29" y="225.02" width="368.18" height="18.18" rx="9.09" transform="translate(375.61 454.57) rotate(-158.51)"/><ellipse class="cls-4" cx="477.23" cy="300.59" rx="19.89" ry="29.55" transform="translate(-89.88 551.46) rotate(-72.03)"/></svg>