<svg id="Layer_1" data-name="Layer 1" xmlns="http://www.w3.org/2000/svg" viewBox="0 0 677.86 496.05"><defs><style>.cls-1{fill:#5ecae6;}.cls-1,.cls-2,.cls-3,.cls-4{stroke:#231f20;stroke-miterlimit:10;stroke-width:4px;}.cls-2{fill:#ec3124;}.cls-3{fill:#1d1f56;}.cls-4{fill:none;}</style></defs><rect class="cls-1" x="2" y="2" width="323.86" height="492.05" rx="27.84"/><rect class="cls-1" x="352" y="2" width="323.86" height="492.05" rx="29.55"/><circle class="cls-2" cx="163.93" cy="128.14" r="77.27"/><circle class="cls-3" cx="163.93" cy="128.14" r="63.78"/><circle class="cls-2" cx="163.93" cy="128.14" r="27.4"/><circle class="cls-2" cx="163.93" cy="338.14" r="77.27"/><circle class="cls-3" cx="163.93" cy="338.14" r="63.78"/><circle class="cls-2" cx="163.93" cy="338.14" r="27.4"/><circle class="cls-2" cx="513.93" cy="128.14" r="77.27"/><circle class="cls-3" cx="513.93" cy="128.14" r="63.78"/><circle class="cls-2" cx="513.93" cy="128.14" r="27.4"/><circle class="cls-2" cx="513.93" cy="338.14" r="77.27"/><circle class="cls-3" cx="513.93" cy="338.14" r="63.78"/><circle class="cls-2" cx="513.93" cy="338.14" r="27.4"/><line class="cls-4" x1="662.8" y1="79.84" x2="662.8" y2="176.44"/><line class="cls-4" x1="662.8" y1="205.41" x2="662.8" y2="267.91"/><line class="cls-4" x1="312.8" y1="79.84" x2="312.8" y2="176.44"/><line class="cls-4" x1="312.8" y1="205.41" x2="312.8" y2="267.91"/></svg>