<svg id="Layer_1" data-name="Layer 1" xmlns="http://www.w3.org/2000/svg" viewBox="0 0 724.85 525.98"><defs><style>.cls-1,.cls-6,.cls-7{fill:none;}.cls-1,.cls-2,.cls-3,.cls-4,.cls-6{stroke:#231f20;}.cls-1,.cls-2,.cls-3,.cls-4,.cls-6,.cls-7{stroke-miterlimit:10;}.cls-1,.cls-2,.cls-3,.cls-4,.cls-7{stroke-width:4px;}.cls-2{fill:#528cc9;}.cls-3{fill:#f4e3b8;}.cls-4{fill:#f2f2f3;}.cls-5{fill:#231f20;opacity:0.1;}.cls-6{stroke-width:5px;}.cls-7{stroke:#fff;opacity:0.7;}</style></defs><line class="cls-1" x1="632.75" y1="432.92" x2="577.84" y2="521.77"/><polyline class="cls-1" points="696.28 521.77 632.75 434.23 632.75 60.56"/><rect class="cls-2" x="516.23" y="250.93" width="127.51" height="144.86"/><rect class="cls-3" x="516.23" y="226.62" width="127.51" height="22.98"/><rect class="cls-2" x="110.88" y="204" width="156.77" height="172.64"/><rect class="cls-3" x="110.88" y="173.19" width="156.77" height="27.72"/><circle class="cls-2" cx="374.06" cy="323.67" r="171.66"/><circle class="cls-4" cx="374.06" cy="323.67" r="159.66"/><path class="cls-5" d="M362.59,159h23a0,0,0,0,1,0,0v34.52A10.47,10.47,0,0,1,375.16,204h-2.09a10.47,10.47,0,0,1-10.47-10.47V159A0,0,0,0,1,362.59,159Z"/><path class="cls-5" d="M384.25,362.42h23a0,0,0,0,1,0,0v34.52a10.47,10.47,0,0,1-10.47,10.47h-2.09a10.47,10.47,0,0,1-10.47-10.47V362.42a0,0,0,0,1,0,0Z" transform="translate(-278.46 230.79) rotate(-45)"/><path class="cls-5" d="M342.58,462.94h23a0,0,0,0,1,0,0v34.52a10.47,10.47,0,0,1-10.47,10.47h-2.09a10.47,10.47,0,0,1-10.47-10.47V462.94A0,0,0,0,1,342.58,462.94Z" transform="translate(-253.53 677.73) rotate(-90)"/><path class="cls-5" d="M384.19,563.47h23a0,0,0,0,1,0,0V598a10.47,10.47,0,0,1-10.47,10.47h-2.09A10.47,10.47,0,0,1,384.19,598V563.47A0,0,0,0,1,384.19,563.47Z" transform="translate(138.97 1118.31) rotate(-135)"/><path class="cls-5" d="M484.7,605.15h23a0,0,0,0,1,0,0v34.52a10.47,10.47,0,0,1-10.47,10.47h-2.09a10.47,10.47,0,0,1-10.47-10.47V605.15A0,0,0,0,1,484.7,605.15Z" transform="translate(870.23 1093.48) rotate(180)"/><path class="cls-5" d="M585.24,563.54h23a0,0,0,0,1,0,0v34.52a10.47,10.47,0,0,1-10.47,10.47h-2.09a10.47,10.47,0,0,1-10.47-10.47V563.54A0,0,0,0,1,585.24,563.54Z" transform="translate(1310.91 416.65) rotate(135)"/><path class="cls-5" d="M626.91,463h23a0,0,0,0,1,0,0v34.52A10.47,10.47,0,0,1,639.48,508h-2.09a10.47,10.47,0,0,1-10.47-10.47V463A0,0,0,0,1,626.91,463Z" transform="translate(1001.75 -314.71) rotate(90)"/><path class="cls-5" d="M585.3,362.49h23a0,0,0,0,1,0,0V397a10.47,10.47,0,0,1-10.47,10.47h-2.09A10.47,10.47,0,0,1,585.3,397V362.49A0,0,0,0,1,585.3,362.49Z" transform="translate(324.83 -471.06) rotate(45)"/><path class="cls-4" d="M363.59,152h20.94a0,0,0,0,1,0,0v31.88a10.47,10.47,0,0,1-10.47,10.47h0a10.47,10.47,0,0,1-10.47-10.47V152A0,0,0,0,1,363.59,152Z"/><path class="cls-4" d="M379.39,357.89h20.94a0,0,0,0,1,0,0v31.88a10.47,10.47,0,0,1-10.47,10.47h0a10.47,10.47,0,0,1-10.47-10.47V357.89A0,0,0,0,1,379.39,357.89Z" transform="translate(-276.06 224.89) rotate(-45)"/><path class="cls-4" d="M335.31,464.3h20.94a0,0,0,0,1,0,0v31.88a10.47,10.47,0,0,1-10.47,10.47h0a10.47,10.47,0,0,1-10.47-10.47V464.3A0,0,0,0,1,335.31,464.3Z" transform="translate(-261.9 669.45) rotate(-90)"/><path class="cls-4" d="M379.39,570.71h20.94a0,0,0,0,1,0,0v31.88a10.47,10.47,0,0,1-10.47,10.47h0a10.47,10.47,0,0,1-10.47-10.47V570.71a0,0,0,0,1,0,0Z" transform="translate(124.8 1124.28) rotate(-135)"/><path class="cls-4" d="M485.79,614.79h20.94a0,0,0,0,1,0,0v31.88a10.47,10.47,0,0,1-10.47,10.47h0a10.47,10.47,0,0,1-10.47-10.47V614.79A0,0,0,0,1,485.79,614.79Z" transform="translate(870.33 1110.12) rotate(-180)"/><path class="cls-4" d="M592.2,570.71h20.94a0,0,0,0,1,0,0v31.88a10.47,10.47,0,0,1-10.47,10.47h0a10.47,10.47,0,0,1-10.47-10.47V570.71A0,0,0,0,1,592.2,570.71Z" transform="translate(1325.15 422.45) rotate(135)"/><path class="cls-4" d="M636.28,464.3h20.94a0,0,0,0,1,0,0v31.88a10.47,10.47,0,0,1-10.47,10.47h0a10.47,10.47,0,0,1-10.47-10.47V464.3a0,0,0,0,1,0,0Z" transform="translate(1010.02 -323.08) rotate(90)"/><path class="cls-4" d="M592.2,357.89h20.94a0,0,0,0,1,0,0v31.88a10.47,10.47,0,0,1-10.47,10.47h0a10.47,10.47,0,0,1-10.47-10.47V357.89a0,0,0,0,1,0,0Z" transform="translate(322.36 -476.93) rotate(45)"/><line class="cls-6" x1="294.07" y1="474.46" x2="252.93" y2="524.39"/><line class="cls-6" x1="462" y1="470.36" x2="503.14" y2="520.3"/><polyline class="cls-6" points="434.84 164.01 434.84 93.64 483.81 67.09"/><rect class="cls-2" x="483.81" y="24.47" width="132.6" height="80.68"/><rect class="cls-3" x="483.81" y="2" width="132.6" height="19.15"/><polyline class="cls-6" points="308.65 164.01 308.65 93.64 259.68 67.09"/><rect class="cls-2" x="249.28" y="186.28" width="132.6" height="80.68" transform="translate(508.96 291.43) rotate(-180)"/><rect class="cls-3" x="249.28" y="163.81" width="132.6" height="19.15" transform="translate(508.96 184.96) rotate(-180)"/><line class="cls-1" x1="621.27" y1="395.79" x2="622.29" y2="243.62"/><line class="cls-1" x1="571.27" y1="395.79" x2="572.29" y2="243.62"/><line class="cls-1" x1="130.29" y1="200.91" x2="130.29" y2="255.45"/><line class="cls-1" x1="150.29" y1="200.91" x2="150.29" y2="255.45"/><line class="cls-1" x1="170.29" y1="200.91" x2="170.29" y2="255.45"/><line class="cls-1" x1="190.29" y1="200.91" x2="190.29" y2="255.45"/><line class="cls-1" x1="210.29" y1="200.91" x2="210.29" y2="255.45"/><line class="cls-1" x1="231.9" y1="204" x2="231.9" y2="227.56"/><polyline class="cls-1" points="213.35 383.98 223.58 450.94 281.04 467.89"/><polyline class="cls-1" points="528.61 397.12 528.61 442.1 474.55 464.6"/><polyline class="cls-1" points="110.88 60.56 51.65 126.43 51.65 452.21 1.61 519.62"/><ellipse class="cls-3" cx="244.76" cy="229.73" rx="16.85" ry="92.95" transform="translate(-202.33 152.37) rotate(-57.76)"/><line class="cls-1" x1="110.88" y1="519.62" x2="51.65" y2="452.21"/><path class="cls-3" d="M778.05,313.82H723.58c-19.18,0-36.84-8.31-46.06-21.66l-10.22-14.8H842.61l-6.23,9C824.7,303.3,802.34,313.82,778.05,313.82Z" transform="translate(-122.2 -161.81)"/><path class="cls-3" d="M731.86,235.5h54.47c19.18,0,36.84,6.48,46.06,16.9l10.22,11.54H667.3l6.23-7C685.21,243.7,707.57,235.5,731.86,235.5Z" transform="translate(-122.2 -161.81)"/><line class="cls-7" x1="496.92" y1="34.85" x2="550.11" y2="34.85"/><line class="cls-7" x1="556.84" y1="34.85" x2="575.56" y2="34.85"/><line class="cls-7" x1="139.48" y1="369.49" x2="119.05" y2="369.66"/><line class="cls-7" x1="121.18" y1="332.73" x2="120.92" y2="371.87"/><line class="cls-7" x1="121.05" y1="319.96" x2="121.05" y2="296.13"/></svg>